<svg xmlns="http://www.w3.org/2000/svg" width="1920" height="200" overflow="visible"><style>.st1{opacity:.1;fill:#ffffff}</style><path fill="none" d="M0 0h1920v200H0z"/><path class="st1" d="M1305.2 100c-30.4 34.9-11.6 89.7 33.9 98.6l7.5 1.5h382.7c-.2-5.9-1.2-12-3.3-18l-52.7-153.4-9.9-28.7h-271.2l-87 100zM435.4 0l5.9 109.7c2.1 38.7 45.3 60.6 77.7 39.5l113.7-74 113.7-74c.6-.4 1.1-.8 1.6-1.1H435.4zM275.1 176.7l-121-61.5-121-61.5C22.2 48.1 10.6 47 0 49.3V200h297.9c-4.5-9.6-12.1-17.9-22.8-23.3z"/></svg>