<svg xmlns="http://www.w3.org/2000/svg" width="1000.2" height="279.1" overflow="visible"><style>.st0{fill:#fff}</style><path class="st0" d="M60.4 223.9c-12.2 0-22.8-2.4-31.8-7.3s-16-12.8-21-23.9c-5-11-7.5-25.8-7.5-44.2 0-18.8 2.8-34.5 8.5-47.1 5.6-12.6 13.2-22 22.7-28.4 9.5-6.4 19.8-9.6 30.9-9.6 6 0 12 .8 17.9 2.3 5.9 1.5 11.1 3.7 15.4 6.5V1.7h51.4v218.9h-44.5l-2.5-12c-5.1 4.8-10.8 8.5-17.1 11.2s-13.8 4.1-22.4 4.1zm14.8-44.1c7.8 0 14.6-3.1 20.2-9.4v-54.6c-5.1-5.4-11.8-8.1-20.2-8.1-6.7 0-12.2 3.6-16.4 10.7-4.2 7.1-6.3 17.3-6.3 30.5 0 13 1.8 21.4 5.5 25.2 3.6 3.8 9.3 5.7 17.2 5.7zM239.9 223.9c-15.1 0-28.5-3-40-8.9-11.6-6-20.6-14.9-27.1-26.8s-9.7-26.6-9.7-44.2c0-24.5 5.8-44 17.5-58.6 11.7-14.6 29.1-21.9 52.2-21.9 21.1 0 37.7 6.4 49.6 19.2 11.9 12.8 17.9 30.2 17.9 52.3v27h-89.9c2.4 8.2 7 14.1 13.9 17.5 6.9 3.5 16.3 5.2 28.1 5.2 7.5 0 15-.8 22.5-2.4 7.6-1.6 13.6-3.5 18.2-5.7v36.7c-12.6 7.1-30.4 10.6-53.2 10.6zm-29.5-95.1H256v-5.5c0-6.1-1.6-11-4.8-14.9-3.2-3.9-8.8-5.8-16.8-5.8-8.9 0-15.2 2.2-18.7 6.7-3.5 4.2-5.3 10.8-5.3 19.5zM350.1 220.7L299 66.7h53.6l24.6 90.3 24.6-90.3h53.6l-51.1 154h-54.2zM484.7 279.1c-15 0-27.8-2.2-38.4-6.6V235c6 2 12 3 18 3 12.6 0 18.9-5.1 18.9-15.3V107.8h-20.7l4.8-41.1h72.3v160.2c0 15.2-4.4 27.7-13.2 37.5-8.8 9.8-22.7 14.7-41.7 14.7zm51.9-251.7c0 15.2-12.3 27.4-27.4 27.4s-27.4-12.3-27.4-27.4S494 0 509.1 0s27.5 12.3 27.5 27.4zM808.1 223.9c-8.4 0-15.7-1.4-22-4.1-6.3-2.7-12.1-6.4-17.4-11.2l-2.5 12h-44.5V1.7h51.4v70.5c4.4-2.8 9.5-5 15.4-6.5s11.9-2.3 17.9-2.3c19.3 0 34.5 6.1 45.5 18.4 11 12.2 16.5 32.4 16.5 60.6 0 27.5-5.5 48-16.4 61.4-10.9 13.4-25.5 20.1-43.9 20.1zm-14.8-44.1c8 0 13.8-2.9 17.4-8.6 3.6-5.7 5.3-15.1 5.3-28.1 0-13.2-1.9-22.4-5.6-27.6-3.7-5.2-9.4-7.8-17.1-7.8-8.4 0-15.1 2.7-20.2 8.1v54.6c5.6 6.2 12.4 9.4 20.2 9.4zM936.8 223.9c-11.1 0-21.5-.9-31.3-2.8-9.7-1.8-17.4-4.2-23.1-7v-43.9c6.4 3.5 14 6.2 22.8 8.1 8.8 1.9 16.4 2.9 22.5 2.9 6.6 0 11.5-.2 14.9-.6 3.4-.4 5.1-2.3 5.1-5.5 0-3.7-3-6.5-9-8.4-6-1.9-13.6-4.8-22.7-8.4-11.8-5-20.7-10.8-26.5-17.5-5.8-6.7-8.7-16.5-8.7-29.2 0-15.4 5.1-27.2 15.3-35.6 10.2-8.3 26.2-12.5 48.1-12.5 8.4 0 17 .8 26 2.3 8.9 1.5 15.9 3.2 21 5.2v42.9c-5.5-2.8-11.4-4.9-17.9-6.2-6.5-1.3-12.3-1.9-17.6-1.9-5.8 0-11 .3-15.6 1-4.6.6-6.8 2.5-6.8 5.5 0 3.5 2.6 6 7.8 7.5 5.2 1.5 12.2 3.9 20.9 7.1 9.8 3.5 17.5 7.3 23.1 11.4 5.6 4.1 9.5 9.1 11.8 14.9 2.3 5.8 3.4 13.1 3.4 21.8 0 15.6-5.3 27.7-16 36.2-10.8 8.5-26.6 12.7-47.5 12.7zM683.9 84.1c-12.5-13.7-31.7-20.6-57.5-20.6-25.7 0-44.7 6.9-57.1 20.6-12.4 13.8-18.6 33.6-18.6 59.6 0 26.2 6.1 46.1 18.4 59.8s31.4 20.5 57.3 20.5c26.1 0 45.3-6.8 57.7-20.5 12.4-13.6 18.6-33.6 18.6-59.8-.1-26-6.3-45.9-18.8-59.6zm-31.5 86.5c-5.6 6.1-14.2 9.2-25.9 9.2-11.6 0-20.2-3.1-25.7-9.2s-8.3-15.1-8.3-26.9c0-11.7 2.8-20.6 8.4-26.8 5.6-6.2 14.1-9.3 25.7-9.3s20.2 3.1 25.9 9.3c5.6 6.2 8.4 15.1 8.4 26.8-.1 11.8-2.9 20.7-8.5 26.9z"/></svg>