<svg xmlns="http://www.w3.org/2000/svg" width="45.2" height="45.2" overflow="visible"><style>.st0{fill:#fff}</style><path class="st0" d="M22.6 11.3c-6.2 0-11.3 5.1-11.3 11.3s5.1 11.3 11.3 11.3c6.2 0 11.3-5.1 11.3-11.3s-5.1-11.3-11.3-11.3zM22.6 7.9c-1.2 0-2.2-1-2.2-2.2V2.2c0-1.2 1-2.2 2.2-2.2s2.2 1 2.2 2.2v3.5c0 1.3-1 2.2-2.2 2.2zM22.6 37.2c-1.2 0-2.2 1-2.2 2.2V43c0 1.2 1 2.2 2.2 2.2s2.2-1 2.2-2.2v-3.5c0-1.3-1-2.3-2.2-2.3zM32.9 12.2c-.9-.9-.9-2.3 0-3.1l2.5-2.5c.9-.9 2.3-.9 3.1 0 .9.9.9 2.3 0 3.1L36 12.2c-.8.9-2.2.9-3.1 0zM12.2 32.9c-.9-.9-2.3-.9-3.1 0l-2.5 2.5c-.9.9-.9 2.3 0 3.1s2.3.9 3.1 0l2.5-2.5c.9-.8.9-2.2 0-3.1zM37.2 22.6c0-1.2 1-2.2 2.2-2.2H43c1.2 0 2.2 1 2.2 2.2s-1 2.2-2.2 2.2h-3.5c-1.3 0-2.3-1-2.3-2.2zM7.9 22.6c0-1.2-1-2.2-2.2-2.2H2.2c-1.2 0-2.2 1-2.2 2.2s1 2.2 2.2 2.2h3.5c1.3 0 2.2-1 2.2-2.2zM32.9 32.9c.9-.9 2.3-.9 3.1 0l2.5 2.5c.9.9.9 2.3 0 3.1s-2.3.9-3.1 0L32.9 36c-.8-.8-.8-2.2 0-3.1zM12.2 12.2c.9-.9.9-2.3 0-3.1L9.7 6.6c-.9-.9-2.3-.9-3.1 0-.9.9-.9 2.3 0 3.1l2.5 2.5c.9.9 2.3.9 3.1 0z"/></svg>